<svg xmlns="http://www.w3.org/2000/svg" width="150" height="24" viewBox="0 0 150 24" role="img" aria-label="5 out of 5 stars">
  <title>5 out of 5 stars</title>
  <g fill="#F59E0B">
    <g transform="translate(0,0)"><path d="M12 2l2.9 6 6.6.6-4.9 4.2 1.5 6.4L12 16.9 6 19.2l1.5-6.4L2.6 8.6l6.6-.6z"/></g>
    <g transform="translate(30,0)"><path d="M12 2l2.9 6 6.6.6-4.9 4.2 1.5 6.4L12 16.9 6 19.2l1.5-6.4L2.6 8.6l6.6-.6z"/></g>
    <g transform="translate(60,0)"><path d="M12 2l2.9 6 6.6.6-4.9 4.2 1.5 6.4L12 16.9 6 19.2l1.5-6.4L2.6 8.6l6.6-.6z"/></g>
    <g transform="translate(90,0)"><path d="M12 2l2.9 6 6.6.6-4.9 4.2 1.5 6.4L12 16.9 6 19.2l1.5-6.4L2.6 8.6l6.6-.6z"/></g>
    <g transform="translate(120,0)"><path d="M12 2l2.9 6 6.6.6-4.9 4.2 1.5 6.4L12 16.9 6 19.2l1.5-6.4L2.6 8.6l6.6-.6z"/></g>
  </g>
</svg>