<svg xmlns="http://www.w3.org/2000/svg" width="256" height="256" viewBox="0 0 256 256" role="img" aria-label="Female avatar 1">
  <defs><style>/* no fonts; minimal */</style></defs>
  <!-- shoulders / torso -->
  <path d="M52 196c0-26 34-44 76-44s76 18 76 44v24H52v-24z" fill="#F59E0B"/>
  <!-- neck -->
  <rect x="112" y="148" width="32" height="28" rx="8" fill="#F5C6A5"/>
  <!-- face -->
  <circle cx="128" cy="116" r="46" fill="#F5C6A5"/>
  <!-- hair -->
  <path d="M84 108c6-24 26-36 44-36s38 12 44 36v18c-16 14-30 20-44 20s-32-6-44-20v-18z" fill="#1F2937"/>
  <!-- simple eyes -->
  <circle cx="112" cy="116" r="4" fill="#1B1B1B"/>
  <circle cx="144" cy="116" r="4" fill="#1B1B1B"/>
  <!-- smile -->
  <path d="M108 134c6 8 34 8 40 0" fill="none" stroke="#1B1B1B" stroke-width="3" stroke-linecap="round"/>
  
</svg>