<svg xmlns="http://www.w3.org/2000/svg" width="24" height="24"
  viewBox="0 0 24 24" aria-hidden="true" role="img">
  <g fill="currentColor">
    <path d="M12 2a10 10 0 1 0 .001 20.001A10 10 0 0 0 12 2Zm2.9 17.4c-.3.06-.4-.12-.4-.28v-1.6c0-.55-.19-.9-.4-1.08 1.33-.15 2.72-.66 2.72-3.02 0-.66-.24-1.2-.64-1.62.06-.16.28-.82-.06-1.7 0 0-.5-.16-1.66.62-.48-.14-1-.2-1.52-.2s-1.04.07-1.52.2c-1.16-.78-1.66-.62-1.66-.62-.34.88-.12 1.54-.06 1.7-.4.42-.64.96-.64 1.62 0 2.35 1.38 2.87 2.71 3.03-.17.15-.32.4-.37.78-.34.15-1.21.42-1.74-.5-.11-.19-.44-.66-.9-.65-.49 0-.2.28-.01.39.25.14.54.66.61.84.19.54.8.95 1.99.79v1.25c0 .16-.1.33-.4.28A8.01 8.01 0 1 1 12 4a8 8 0 0 1 2.9 15.4Z"/>
  </g>
</svg>
